<svg class="img-fluid" id="outputsvg" xmlns="http://www.w3.org/2000/svg" style="transform: matrix(1, 0, 0, 1, 0, 0); transform-origin: 50% 50%; cursor: move; transition: transform 200ms ease-in-out;" width="auto" height="70px" viewBox="0 0 18450 8160"><g id="l43VmKzHUb2Bpju1R903muK" fill="rgb(0,0,0)" style="transform: none;"><g><path id="ps7tTwCCY" d="M240 3625 l0 -2656 1478 4 c1462 3 1478 3 1587 25 513 100 787 378 859 874 13 88 15 350 17 1823 1 1702 1 1721 -20 1817 -43 203 -114 340 -241 469 -144 145 -313 226 -566 269 -145 25 -430 30 -1736 30 l-1378 0 0 -2655z m2510 1577 c135 -45 220 -132 263 -267 l22 -70 0 -1280 c0 -1391 3 -1326 -56 -1452 -49 -104 -161 -180 -297 -203 -45 -7 -256 -10 -637 -8 l-570 3 4 1645 c2 905 6 1649 8 1653 3 5 273 7 601 5 584 -4 598 -4 662 -26z"></path><path id="pbeJGmaCT" d="M5060 3625 l0 -2655 1685 0 1685 0 0 525 0 525 -1110 0 -1110 0 0 635 0 635 870 0 870 0 0 475 0 475 -682 0 c-376 0 -767 3 -870 7 l-188 6 0 489 0 488 1110 0 1110 0 0 525 0 525 -1685 0 -1685 0 0 -2655z"></path><path id="p1DFk4hyEG" d="M9300 3625 l0 -2655 620 0 620 0 0 1462 c0 1270 2 1460 14 1448 8 -8 324 -600 702 -1315 377 -715 721 -1365 764 -1445 l77 -145 666 -3 666 -2 -18 32 c-18 32 -1075 1974 -1406 2583 -89 165 -456 839 -815 1498 l-653 1197 -618 0 -619 0 0 -2655z"></path><path id="puhKyK13p" d="M14220 5655 l0 -625 1240 0 c1237 0 1239 0 1296 -21 76 -29 129 -83 149 -154 13 -44 16 -93 13 -243 -3 -205 -10 -231 -74 -296 -64 -64 -15 -60 -959 -67 -908 -7 -937 -8 -1095 -56 -324 -97 -506 -325 -560 -698 -6 -41 -10 -368 -10 -800 0 -599 3 -748 15 -830 59 -392 249 -650 581 -789 71 -30 154 -53 314 -88 41 -8 438 -12 1543 -15 l1487 -4 0 571 0 570 -1140 0 c-805 0 -1155 3 -1192 11 -126 27 -213 103 -249 218 -27 85 -39 375 -20 472 29 146 110 235 243 270 29 7 316 13 868 19 781 7 830 8 910 28 100 24 208 63 259 94 217 132 337 325 397 638 21 111 32 1115 14 1329 -36 441 -195 736 -488 910 -170 102 -363 153 -647 171 -96 6 -704 10 -1527 10 l-1368 0 0 -625z"></path></g></g></svg>