<svg class="img-fluid" id="outputsvg" xmlns="http://www.w3.org/2000/svg" style="transform: none; transform-origin: 50% 50%; cursor: move;" width="auto" height="50px" viewBox="0 0 18920 5860"><g id="l4OtFr5n0RQAvwRXMAMjqym" fill="rgb(0,0,0)" style="transform: none;"><g><path id="p8PKUfpxW" d="M210 2890 l0 -2700 1398 0 c864 0 1449 4 1532 10 664 51 1012 367 1079 980 7 62 11 688 12 1790 1 1549 -1 1704 -16 1795 -40 235 -126 409 -271 546 -135 128 -284 196 -547 252 -101 21 -111 21 -1644 25 l-1543 3 0 -2701z m2533 1614 c165 -43 259 -135 302 -299 25 -95 26 -257 17 -1520 -8 -1167 -9 -1191 -29 -1246 -54 -145 -148 -229 -295 -264 -52 -12 -169 -15 -665 -15 l-603 0 0 1680 0 1680 606 0 c519 0 615 -2 667 -16z"></path><path id="p1Hm5RVZfj" d="M5120 2890 l0 -2700 1713 0 1714 0 6 137 c4 75 7 315 7 535 l0 398 -1135 0 -1135 0 0 643 0 644 128 6 c70 4 470 7 890 7 l762 0 0 480 0 480 -890 0 -890 0 0 505 0 505 1135 0 1135 0 0 530 0 530 -1720 0 -1720 0 0 -2700z"></path><path id="pnU8KwpnM" d="M9450 2890 l0 -2700 635 0 635 0 0 1492 c0 1361 1 1490 16 1470 16 -23 284 -527 1094 -2057 l477 -900 678 -3 c540 -2 676 0 672 10 -2 7 -664 1221 -1470 2698 l-1464 2685 -637 3 -636 2 0 -2700z"></path><path id="p3szrQZU4" d="M14500 4960 l0 -629 1268 -3 c1217 -3 1269 -4 1320 -22 55 -20 112 -68 137 -116 26 -50 38 -167 32 -315 -8 -204 -39 -274 -146 -324 l-56 -26 -890 -6 c-965 -7 -947 -6 -1121 -64 -304 -102 -489 -346 -534 -705 -8 -68 -10 -316 -8 -870 l4 -775 27 -108 c79 -324 236 -530 504 -666 106 -53 180 -77 369 -118 73 -16 201 -18 1592 -21 l1512 -3 0 580 0 580 -1182 3 c-1312 4 -1225 -1 -1329 69 -55 38 -93 93 -117 169 -14 45 -17 96 -17 280 0 212 1 228 23 279 28 66 61 107 115 144 92 62 62 60 972 67 913 7 935 9 1092 71 303 120 466 345 530 729 15 92 18 183 18 715 0 433 -4 636 -12 700 -69 496 -301 801 -714 935 -238 78 -277 80 -1941 80 l-1448 0 0 -630z"></path></g></g></svg>