<svg class="img-fluid" id="outputsvg" xmlns="http://www.w3.org/2000/svg" style="transform: none; transform-origin: 50% 50%; cursor: move;" width="250px" height="auto" viewBox="0 0 32640 4960"><g id="l6u4A3XGMSoKgpP4F8e814c" fill="rgb(0,0,0)" style="transform: none;"><g><path id="pi9T7PPYI" d="M450 3786 l0 -446 881 0 c597 0 894 -3 923 -11 24 -6 55 -22 69 -35 49 -45 61 -81 65 -197 7 -191 -12 -257 -88 -301 -34 -20 -53 -21 -675 -27 -717 -6 -719 -6 -871 -79 -143 -69 -233 -187 -286 -375 -22 -79 -22 -90 -23 -650 0 -554 1 -573 22 -665 14 -57 42 -133 69 -190 91 -184 246 -297 490 -357 l109 -27 1068 -3 1067 -4 0 410 0 410 -842 3 c-830 3 -844 3 -888 24 -25 11 -60 37 -77 57 -52 59 -65 123 -61 299 3 137 5 158 27 201 29 59 85 102 152 116 32 7 233 11 552 11 525 0 667 7 779 39 202 58 337 205 400 436 21 76 22 104 26 550 2 316 0 496 -8 550 -55 389 -256 603 -639 682 -65 14 -229 16 -1158 20 l-1083 4 0 -445z"></path><path id="pHo1VKJMj" d="M3970 2325 l0 -1905 440 0 440 0 0 1905 0 1905 -440 0 -440 0 0 -1905z"></path><path id="pIk3Oy3NF" d="M6252 4219 c-393 -30 -642 -222 -731 -563 -40 -154 -43 -240 -39 -1426 4 -1117 5 -1137 26 -1230 13 -59 39 -130 67 -188 96 -193 255 -304 520 -363 98 -22 115 -22 983 -26 l882 -5 0 376 0 376 -643 0 c-444 0 -661 4 -701 11 -119 24 -213 112 -236 222 -7 36 -10 322 -8 927 l3 875 25 58 c29 68 91 137 149 166 89 46 142 51 552 51 344 0 388 -2 393 -16 3 -9 6 -274 6 -590 l0 -574 440 0 440 0 0 965 0 965 -1012 -1 c-557 -1 -1059 -5 -1116 -10z"></path><path id="pGYAYZGmK" d="M9012 2613 l3 -1618 23 -75 c36 -115 79 -187 162 -270 82 -82 151 -124 271 -164 161 -54 217 -58 834 -63 344 -3 631 -1 725 6 386 25 604 147 725 403 42 90 63 166 75 283 6 53 10 707 10 1603 l0 1512 -410 0 -410 0 0 -800 0 -800 -565 0 -565 0 0 800 0 800 -440 0 -440 0 2 -1617z m2006 -920 c-3 -350 -6 -415 -21 -459 -32 -98 -102 -160 -212 -189 -85 -22 -575 -22 -660 0 -110 29 -180 91 -212 189 -15 44 -18 109 -21 459 l-3 407 566 0 566 0 -3 -407z"></path><path id="p1G4Fc1eJ2" d="M13980 2682 c0 -1028 4 -1576 11 -1632 34 -272 170 -453 414 -548 180 -70 319 -81 995 -81 723 0 835 11 1030 106 79 38 108 59 175 127 90 91 139 177 177 312 l23 79 3 1593 2 1592 -405 0 -405 0 -2 -797 -3 -798 -562 -3 -563 -2 0 800 0 800 -445 0 -445 0 0 -1548z m2014 -598 c10 -25 7 -650 -4 -748 -16 -151 -76 -239 -195 -282 -43 -16 -90 -19 -330 -22 -294 -4 -366 3 -438 39 -63 33 -112 91 -135 164 -21 63 -22 83 -22 465 l0 400 559 0 c500 0 559 -2 565 -16z"></path><path id="p1FHvIzTMZ" d="M18960 2324 l0 -1905 1058 4 c1049 4 1058 4 1156 26 269 60 425 169 520 363 53 107 73 177 86 303 6 52 10 587 9 1280 0 1282 1 1267 -52 1407 -56 146 -158 258 -300 328 -107 53 -213 79 -367 90 -69 5 -572 10 -1117 10 l-993 0 0 -1906z m1817 1132 c71 -26 126 -75 160 -144 l28 -57 0 -961 0 -961 -35 -68 c-26 -52 -47 -76 -83 -101 -84 -58 -85 -58 -564 -61 l-443 -4 0 1184 c0 651 3 1187 7 1191 4 4 203 6 443 4 396 -3 440 -5 487 -22z"></path><path id="p1FLcEpxZ5" d="M22420 2325 l0 -1905 1205 0 1205 0 0 375 0 375 -795 0 -795 0 0 460 0 460 620 0 620 0 0 335 0 335 -428 0 c-236 0 -517 3 -625 7 l-197 6 0 354 0 353 800 0 800 0 0 375 0 375 -1205 0 -1205 0 0 -1905z"></path><path id="p1CCUVm6gn" d="M25480 2325 l0 -1905 440 0 440 0 0 1050 c0 834 3 1050 13 1050 6 -1 261 -473 566 -1050 l554 -1050 474 0 c261 0 472 3 470 7 -4 7 -1338 2456 -1856 3405 l-216 398 -442 0 -443 0 0 -1905z"></path><path id="p7MKprD7b" d="M29010 3786 l0 -446 881 0 c612 0 894 -3 924 -11 51 -13 103 -61 121 -111 7 -19 13 -88 13 -163 0 -172 -18 -222 -94 -264 -27 -14 -101 -17 -670 -22 -560 -5 -649 -8 -715 -23 -215 -50 -363 -182 -425 -378 -40 -127 -48 -269 -42 -797 4 -433 6 -484 25 -569 25 -115 93 -257 157 -329 93 -105 239 -183 427 -226 91 -21 113 -21 1156 -24 l1062 -4 0 410 0 410 -842 3 c-830 3 -844 3 -888 24 -107 49 -140 129 -140 335 0 160 15 220 67 274 69 71 41 68 718 76 580 6 614 7 694 28 181 46 304 145 380 304 74 154 76 175 76 757 l-1 515 -26 96 c-72 264 -218 427 -456 513 -169 60 -138 59 -1319 63 l-1083 4 0 -445z"></path></g></g></svg>